<?xml version="1.0" encoding="UTF-8" standalone="no"?>
<svg width="110px" height="32px" viewBox="0 0 110 32" version="1.1" xmlns="http://www.w3.org/2000/svg" xmlns:xlink="http://www.w3.org/1999/xlink">
<title>Haplo</title>
<desc>(c) (r) Haplo Services Ltd 2017</desc>
<g id="Page-1" stroke="none" stroke-width="1" fill="none" fill-rule="evenodd">
<g id="Group-2" fill="#DDDDDD">
<g id="flower">
<path d="M2.02107463,15.6256716 L10.753791,15.6256716 C10.8335522,14.4479403 11.301791,13.3773134 12.0318806,12.5400597 L5.85713433,6.36513433 C5.03510448,6.95516418 3.90131343,6.91241791 3.12608955,6.23623881 C1.48829851,8.39295522 0.383343284,10.9738507 0,13.7856716 C1.02573134,13.8562985 1.85731343,14.6278209 2.02107463,15.6256716 L2.02107463,15.6256716 Z"></path>
<path d="M29.9487761,16.3441791 L21.216,16.3441791 C21.1362388,17.5221493 20.6678209,18.5927761 19.9377313,19.429791 L26.1129552,25.6047761 C26.934806,25.0149254 28.0685373,25.0577313 28.8438209,25.7338507 C30.4815522,23.5771343 31.5865672,20.996 31.9698507,18.1841791 C30.9438806,18.1135522 30.1124776,17.3420299 29.9487761,16.3441791 L29.9487761,16.3441791 Z"></path>
<path d="M5.85695522,25.6047761 L12.0321791,19.4299701 C11.3018507,18.5927761 10.8336119,17.5221493 10.7538507,16.3441194 L2.02107463,16.3441194 C1.85731343,17.3420299 1.02573134,18.1135522 0,18.1841791 C0.383343284,20.996 1.48829851,23.5771343 3.12585075,25.7336119 C3.90161194,25.0577313 5.03516418,25.0149254 5.85695522,25.6047761 L5.85695522,25.6047761 Z"></path>
<path d="M26.1124776,6.36489552 L19.9377313,12.5401194 C20.6678209,13.3773134 21.1362388,14.448 21.216,15.6257313 L29.9487164,15.6257313 C30.1124179,14.6278209 30.9438209,13.8562985 31.9698507,13.7857313 C31.5865672,10.9739104 30.4814925,8.39301493 28.8438209,6.23629851 C28.0680597,6.91235821 26.9342687,6.95516418 26.1124776,6.36489552 L26.1124776,6.36489552 Z"></path>
<path d="M25.6047761,26.1127164 L19.4297313,19.9377313 C18.5927164,20.6680597 17.5220896,21.1362985 16.3441194,21.216 L16.3441194,29.9487761 C17.3420299,30.1124776 18.1135522,30.9441194 18.1841194,31.9700299 C20.9959403,31.5866866 23.5768358,30.4814328 25.7335522,28.8439403 C25.0574925,28.0682985 25.0149254,26.9345075 25.6047761,26.1127164 L25.6047761,26.1127164 Z"></path>
<path d="M13.7856119,31.9700896 C13.8562985,30.9441194 14.6277612,30.1125373 15.6256716,29.9488358 L15.6256716,21.216 C14.4477015,21.1362985 13.3770746,20.6680597 12.5398209,19.9379701 L6.36489552,26.1127164 C6.95468657,26.934806 6.9121194,28.0685373 6.236,28.844 C8.39271642,30.4814925 10.9738507,31.5867463 13.7856119,31.9700896 L13.7856119,31.9700896 Z"></path>
<path d="M18.1841791,0 C18.1135522,1.02597015 17.3420896,1.85737313 16.3441791,2.02131343 L16.3441791,10.7538507 C17.5220896,10.8336119 18.5925373,11.301791 19.429791,12.0321791 L25.6047761,5.85695522 C25.0149254,5.03540299 25.0577313,3.90137313 25.7336119,3.12608955 C23.5768955,1.48829851 20.996,0.383283582 18.1841791,0 L18.1841791,0 Z"></path>
<path d="M6.36513433,5.85713433 L12.5398209,12.0321194 C13.3770746,11.301791 14.4477015,10.8335522 15.6256716,10.753791 L15.6256716,2.02131343 C14.6278209,1.85737313 13.8562985,1.02620896 13.7856119,0 C10.9738507,0.383283582 8.39295522,1.48829851 6.23623881,3.12608955 C6.91235821,3.90137313 6.95492537,5.03558209 6.36513433,5.85713433 L6.36513433,5.85713433 Z"></path>
</g>
<path d="M56.0292263,7.32671675 L58.5123074,7.32671675 L58.5123074,25.0666667 L56.0292263,25.0666667 L56.0292263,16.8750592 L47.3512422,16.8750592 L47.3512422,25.0666667 L44.8681612,25.0666667 L44.8681612,7.32671675 L47.3512422,7.32671675 L47.3512422,14.7247622 L56.0292263,14.7247622 L56.0292263,7.32671675 Z M67.2670878,23.3515489 C67.8302637,23.3515489 68.3294348,23.3387496 68.7646161,23.3131507 C69.1997974,23.2875518 69.5624431,23.2406212 69.8525639,23.1723574 L69.8525639,19.2045476 C69.6819046,19.1192179 69.4045873,19.0466888 69.0206038,18.986958 C68.6366203,18.9272272 68.1715806,18.8973623 67.6254707,18.8973623 C67.267086,18.8973623 66.8873747,18.9229608 66.4863253,18.9741586 C66.0852758,19.0253564 65.7183637,19.1320169 65.385578,19.2941433 C65.0527923,19.4562697 64.775475,19.6781235 64.5536179,19.9597114 C64.3317607,20.2412993 64.2208338,20.6124778 64.2208338,21.073258 C64.2208338,21.9265547 64.4938847,22.5195871 65.0399946,22.8523728 C65.5861045,23.1851585 66.3284615,23.3515489 67.2670878,23.3515489 Z M67.0622977,11.4225205 C68.01799,11.4225205 68.8243433,11.5462466 69.4813817,11.7937027 C70.1384202,12.0411587 70.6674562,12.3910051 71.0685057,12.8432524 C71.4695551,13.2954997 71.7554052,13.8330685 71.9260646,14.4559751 C72.0967239,15.0788817 72.1820523,15.7657753 72.1820523,16.5166764 L72.1820523,24.8362777 C71.9772611,24.8704096 71.691411,24.9173402 71.3244934,24.977071 C70.9575758,25.0368017 70.5437331,25.0922652 70.0829529,25.143463 C69.6221727,25.1946608 69.1230016,25.2415914 68.5854247,25.2842562 C68.0478477,25.3269211 67.5145453,25.3482532 66.9855013,25.3482532 C66.2346002,25.3482532 65.5434403,25.2714576 64.9120007,25.1178642 C64.2805611,24.9642708 63.7344594,24.7210849 63.2736792,24.3882992 C62.812899,24.0555135 62.4545197,23.6160722 62.1985307,23.0699623 C61.9425417,22.5238525 61.8145491,21.8668238 61.8145491,21.0988568 C61.8145491,20.3650216 61.9638738,19.7335915 62.2625277,19.2045476 C62.5611815,18.6755036 62.9664914,18.2488617 63.4784694,17.9246089 C63.9904474,17.6003562 64.5877462,17.3614367 65.2703835,17.2078433 C65.9530209,17.0542498 66.6697794,16.9774543 67.4206805,16.9774543 C67.6596036,16.9774543 67.9070559,16.9902536 68.1630449,17.0158525 C68.4190339,17.0414514 68.6622198,17.0755827 68.8926099,17.1182475 C69.1230001,17.1609124 69.3235218,17.1993102 69.4941811,17.233442 C69.6648405,17.2675739 69.7843002,17.2931724 69.8525639,17.3102383 L69.8525639,16.6446702 C69.8525639,16.2521538 69.8098998,15.8639096 69.7245701,15.4799261 C69.6392404,15.0959425 69.4856493,14.754629 69.2637922,14.4559751 C69.041935,14.1573213 68.7390192,13.9184018 68.3550357,13.7392095 C67.9710522,13.5600172 67.4718811,13.4704223 66.8575075,13.4704223 C66.0724745,13.4704223 65.3855809,13.5258858 64.7968062,13.6368144 C64.2080315,13.7477429 63.7685903,13.8629363 63.4784694,13.9823978 L63.1968829,12.0112923 C63.5040697,11.8747648 64.01604,11.7425058 64.7328093,11.6145113 C65.4495785,11.4865168 66.2260669,11.4225205 67.0622977,11.4225205 Z M85.3654206,18.4365844 C85.3654206,16.8835844 84.9814428,15.6889869 84.2134758,14.8527561 C83.4455087,14.0165253 82.4215681,13.5984162 81.141623,13.5984162 C80.4248537,13.5984162 79.8659528,13.6240147 79.4649033,13.6752125 C79.0638539,13.7264103 78.7438724,13.7861402 78.5049493,13.8544039 L78.5049493,22.2508016 C78.7950702,22.4897247 79.2131793,22.7201113 79.7592892,22.9419685 C80.3053991,23.1638256 80.9026979,23.2747525 81.5512034,23.2747525 C82.2338407,23.2747525 82.8183402,23.1510264 83.3047193,22.9035703 C83.7910985,22.6561143 84.1878755,22.3148007 84.4950623,21.8796194 C84.8022491,21.4444381 85.0241029,20.9324677 85.1606304,20.343693 C85.2971579,19.7549183 85.3654206,19.1192217 85.3654206,18.4365844 Z M87.8485016,18.4365844 C87.8485016,19.4434745 87.7162426,20.373554 87.4517206,21.2268507 C87.1871986,22.0801474 86.7989545,22.8139715 86.2869764,23.4283452 C85.7749984,24.0427188 85.1478347,24.5205578 84.4054666,24.8618765 C83.6630984,25.2031952 82.814081,25.3738519 81.8583886,25.3738519 C81.0904216,25.3738519 80.4120609,25.2714579 79.8232862,25.0666667 C79.2345114,24.8618755 78.7950702,24.6656202 78.5049493,24.4778949 L78.5049493,29.8024397 L76.1242634,29.8024397 L76.1242634,12.1648849 C76.6874392,12.0283574 77.3913985,11.8790327 78.2361622,11.7169064 C79.080926,11.55478 80.057936,11.473718 81.1672218,11.473718 C82.1911778,11.473718 83.1127244,11.635842 83.9318893,11.9600947 C84.7510541,12.2843475 85.4507469,12.7451208 86.0309887,13.3424285 C86.6112305,13.9397362 87.0592045,14.6692939 87.3749243,15.5311236 C87.6906441,16.3929533 87.8485016,17.3614305 87.8485016,18.4365844 Z M95.1953495,25.3226544 C93.7276792,25.2885225 92.6866728,24.9728075 92.0722992,24.3754998 C91.4579256,23.7781921 91.1507434,22.8481126 91.1507434,21.5852335 L91.1507434,5.61159893 L93.5314293,5.20201856 L93.5314293,21.2012519 C93.5314293,21.5937684 93.5655606,21.9180163 93.6338244,22.1740053 C93.7020881,22.4299943 93.813015,22.6347824 93.9666084,22.7883758 C94.1202018,22.9419692 94.32499,23.0571626 94.580979,23.1339593 C94.836968,23.210756 95.152683,23.2747523 95.5281336,23.3259501 L95.1953495,25.3226544 Z M109.940243,18.4109856 C109.940243,19.4690735 109.786652,20.4247515 109.479465,21.2780482 C109.172278,22.1313449 108.74137,22.8651691 108.186727,23.4795427 C107.632084,24.0939164 106.970789,24.5674889 106.202822,24.9002746 C105.434855,25.2330604 104.598637,25.3994507 103.694142,25.3994507 C102.789648,25.3994507 101.95343,25.2330604 101.185463,24.9002746 C100.417495,24.5674889 99.7562004,24.0939164 99.2015576,23.4795427 C98.6469147,22.8651691 98.2160063,22.1313449 97.9088195,21.2780482 C97.6016327,20.4247515 97.4480416,19.4690735 97.4480416,18.4109856 C97.4480416,17.3699636 97.6016327,16.4185521 97.9088195,15.5567224 C98.2160063,14.6948927 98.6469147,13.9568021 99.2015576,13.3424285 C99.7562004,12.7280548 100.417495,12.2544823 101.185463,11.9216966 C101.95343,11.5889108 102.789648,11.4225205 103.694142,11.4225205 C104.598637,11.4225205 105.434855,11.5889108 106.202822,11.9216966 C106.970789,12.2544823 107.632084,12.7280548 108.186727,13.3424285 C108.74137,13.9568021 109.172278,14.6948927 109.479465,15.5567224 C109.786652,16.4185521 109.940243,17.3699636 109.940243,18.4109856 Z M107.457162,18.4109856 C107.457162,16.9091834 107.120115,15.7188523 106.44601,14.8399567 C105.771906,13.9610611 104.854626,13.5216199 103.694142,13.5216199 C102.533659,13.5216199 101.616379,13.9610611 100.942274,14.8399567 C100.26817,15.7188523 99.9311226,16.9091834 99.9311226,18.4109856 C99.9311226,19.9127878 100.26817,21.1031189 100.942274,21.9820145 C101.616379,22.8609101 102.533659,23.3003513 103.694142,23.3003513 C104.854626,23.3003513 105.771906,22.8609101 106.44601,21.9820145 C107.120115,21.1031189 107.457162,19.9127878 107.457162,18.4109856 Z" id="Haplo"></path>
</g>
</g>
</svg>